<?xml version="1.0" encoding="UTF-8"?>
<svg id="Layer_1" data-name="Layer 1" xmlns="http://www.w3.org/2000/svg" viewBox="0 0 666.67 533.33">
  <path d="M132.27,0h402.13c14.62,0,27.24,0,37.68.71,10.99.75,21.99,2.4,32.86,6.9,24.5,10.15,43.97,29.62,54.12,54.12,4.5,10.86,6.15,21.86,6.9,32.86.71,10.44.71,23.06.71,37.68v268.8c0,14.62,0,27.24-.71,37.68-.75,10.99-2.4,21.99-6.9,32.86-10.15,24.5-29.62,43.97-54.12,54.12-10.87,4.5-21.86,6.15-32.86,6.9-10.44.71-23.06.71-37.68.71H132.27c-14.62,0-27.24,0-37.68-.71-10.99-.75-21.99-2.4-32.86-6.9-24.5-10.15-43.97-29.62-54.12-54.12-4.5-10.87-6.15-21.86-6.9-32.86C0,428.3,0,415.69,0,401.07V132.27c0-14.62,0-27.24.71-37.68.75-10.99,2.4-21.99,6.9-32.86C17.76,37.23,37.23,17.76,61.73,7.61c10.86-4.5,21.86-6.15,32.86-6.9C105.03,0,117.65,0,132.27,0ZM77.25,75.93c12.12-13.85,33.18-15.26,47.04-3.14l187.1,163.71c12.57,11,31.33,11,43.9,0l187.1-163.71c13.85-12.12,34.91-10.72,47.03,3.14,12.12,13.85,10.72,34.91-3.13,47.04l-187.1,163.71c-37.7,32.99-94,32.99-131.7,0L80.38,122.96c-13.85-12.12-15.26-33.18-3.14-47.04Z" fill-rule="evenodd"/>
</svg>