<?xml version="1.0" encoding="UTF-8"?>
<svg id="Layer_1" data-name="Layer 1" xmlns="http://www.w3.org/2000/svg" viewBox="0 0 662.91 662.36">
  <path d="M207.71,3.7c33.74-15.12,62.96,19.03,52.41,48.68-35.81,100.61-13.81,214.88,60.52,289.18,74.71,74.68,189.74,96.63,290.67,60.18,29.37-10.61,62.59,18.33,48.07,51.27-.43.97-.86,1.94-1.3,2.92-25.84,57.31-67.18,111.2-120.67,147.33-57.01,38.51-124.23,59.09-193.04,59.09h-.03c-80.01-.09-157.5-27.99-219.18-78.93-61.68-50.94-103.72-121.75-118.91-200.28-15.18-78.53-2.57-159.9,35.69-230.15C78.22,86.39,139.2,34.64,206.72,4.15l.99-.45Z" fill-rule="evenodd"/>
</svg>