<?xml version="1.0" encoding="UTF-8"?>
<svg id="Layer_1" data-name="Layer 1" xmlns="http://www.w3.org/2000/svg" viewBox="0 0 666.67 666.67">
  <path d="M4.7,80.07C11.34,30.99,54.65,0,99.67,0h85.61c43.04,0,81.26,27.54,94.87,68.38l34.98,104.94c15.03,45.11-11.51,93.47-57.64,105-11.28,2.82-15.17,16.86-6.95,25.09l112.71,112.71c8.22,8.22,22.27,4.33,25.09-6.95,11.53-46.13,59.89-72.67,105-57.64l104.94,34.98c40.83,13.61,68.38,51.82,68.38,94.87v85.62c0,45.01-30.99,88.33-80.07,94.97-22.88,3.1-46.23,4.7-69.93,4.7C231.32,666.67,0,435.35,0,150c0-23.7,1.6-47.05,4.7-69.93Z" fill-rule="evenodd"/>
</svg>